<?xml version="1.0" encoding="utf-8"?>
<!-- Generator: Adobe Illustrator 26.1.0, SVG Export Plug-In . SVG Version: 6.00 Build 0)  -->
<svg version="1.1" id="Layer_1" xmlns="http://www.w3.org/2000/svg" xmlns:xlink="http://www.w3.org/1999/xlink" x="0px" y="0px"
	 viewBox="0 0 283 64" style="enable-background:new 0 0 283 64;" xml:space="preserve">
<style type="text/css">
	.st0{fill:#FF0606;}
</style>
<path class="st0" d="M141,16c-11,0-19,7-19,18s9,18,20,18c7,0,13-3,16-7l-7-5c-2,3-6,4-9,4c-5,0-9-3-10-7h28v-3
	C160,23,152,16,141,16z M132,31c1-4,4-7,9-7s8,3,9,7H132z M249,16c-11,0-19,7-19,18s9,18,20,18c6,0,12-3,16-7l-8-5c-2,3-5,4-8,4
	c-5,0-9-3-11-7h28l1-3C268,23,260,16,249,16z M239,31c2-4,5-7,10-7s8,3,9,7H239z M200,34c0,6,4,10,10,10c4,0,7-2,9-5l8,5
	c-3,5-9,8-17,8c-11,0-19-7-19-18s8-18,19-18c8,0,14,3,17,8l-8,5c-2-3-5-5-9-5C204,24,200,28,200,34z M283,5v46h-9V5H283z M37,0
	l37,64H0L37,0z M129,5l-27,48L74,5h10l18,30l17-30H129z M188,17v10l-3-1c-6,0-10,4-10,10v15h-9V17h9v9C175,21,181,17,188,17z"/>
</svg>
